<?xml version="1.0" encoding="UTF-8"?>
<svg id="Layer_2" data-name="Layer 2" xmlns="http://www.w3.org/2000/svg" viewBox="0 0 90.18 124.26">
  <defs>
    <style>
      .cls-1 {
        fill: #5a4bad;
      }

      .cls-2 {
        fill: #5a49ab;
      }

      .cls-3 {
        fill: #cfc4fb;
      }

      .cls-4 {
        fill: #312f68;
      }

      .cls-5 {
        fill: #a7a5c3;
      }

      .cls-6 {
        fill: #fffefe;
      }

      .cls-7 {
        fill: #927ee2;
      }

      .cls-8 {
        fill: #fefefe;
      }

      .cls-9 {
        fill: #5949ab;
      }

      .cls-10 {
        fill: #917ce0;
      }
    </style>
  </defs>
  <g id="Layer_1-2" data-name="Layer 1-2">
    <g id="Generative_Object" data-name="Generative Object">
      <g>
        <path class="cls-2" d="M10.1,119.91h50.95l1.36-.09c.36,2.21-1.26,4.44-3.61,4.44H10.55c-3,0-5.84-1.35-7.84-3.49-1.88-2.01-2.71-4.55-2.71-7.28V38.35c0-2.77.78-5.39,2.62-7.45,1.84-2.06,4.32-3.33,7.12-3.5h15.53v4.23h-15.21c-3.12.05-5.78,2.94-5.78,5.88l.02,76.51c0,3.12,2.76,5.63,5.8,5.9h0Z"/>
        <g>
          <g>
            <path class="cls-10" d="M55.74,26.09l-1.84,8.3c-.43,1.92-1.28,3.6-2.63,5.04-2.03,2.15-4.75,3.47-7.69,3.72-2.14.18-3.97-.38-5.82-1.31-2.1-1.05-4.64.12-5.46,2.15-.88,2.21.23,4.4,2.31,5.38,5.54,2.6,11.83,2.59,17.25-.35,4.66-2.53,8.3-6.59,9.74-11.76l.87-3.69,17.64.03c1.96,0,3.85,1.75,3.85,3.81l.03,56.65h-13.87c-4.09,0-7.61,3.13-7.63,7.29l-.06,16.33c-.37.2-.74.3-1.21.3H10.7c-2.47.01-4.49-1.92-4.49-4.41V37.61c.01-2.04,1.71-3.98,3.73-3.99l15.35-.06c-.27,2.2,1.12,4.05,3.23,4.47,2.31.46,4.82-1.14,4.83-3.59l.03-8.52.08-.21,22.14.17.13.21h0Z"/>
            <g>
              <path class="cls-8" d="M73.51,87.49l-56.72-.02c-1.33,0-2.28-1.3-2.28-2.47s.95-2.47,2.28-2.47h56.77c1.3.19,2.16,1.25,2.15,2.47s-.84,2.3-2.2,2.49Z"/>
              <path class="cls-6" d="M56.92,98.92l-40.33-.03c-1.31,0-2.13-1.45-2.08-2.52.05-1.16.98-2.38,2.28-2.38h39.86c1.31,0,2.21,1.14,2.32,2.24.08,1.3-.67,2.41-2.06,2.69h.01Z"/>
              <path class="cls-8" d="M45.69,110.36h-29c-1.34.02-2.17-1.33-2.17-2.46s.92-2.46,2.27-2.46h28.74c1.3,0,2.16,1.24,2.22,2.37.05,1.04-.72,2.55-2.06,2.55Z"/>
              <path class="cls-4" d="M35.66,72.72c-.69-.62-1.32-1.15-1.8-1.91-.61-.95-.35-2.23.53-2.84s2.16-.52,2.89.38c1.92,2.36,4.71,3.79,7.71,3.83s5.94-1.34,7.88-3.73c.77-.94,2.01-1.15,2.94-.49s1.22,2.07.45,3.04c-.62.78-1.34,1.45-2.08,2.07-5.43,4.53-13.22,4.39-18.51-.33v-.02Z"/>
              <circle class="cls-4" cx="59.21" cy="59.65" r="4.09"/>
              <circle class="cls-4" cx="31.01" cy="59.65" r="4.08"/>
            </g>
          </g>
          <path class="cls-9" d="M85.93,94.02l-.02-56.45c0-3.14-2.66-5.96-5.94-5.94h-17.06l.9-4.24h16.8c5.37.42,9.57,4.9,9.57,10.32l-.02,52.78c0,2.21-2.2,3.75-4.23,3.52h0Z"/>
          <g>
            <path class="cls-3" d="M86.99,95.93l.49.02c-.18.98-.91,1.82-1.58,2.55l-20.25,19.57-1.03.93c-.14.05-.18,0-.22-.12-.04-5.91-.02-11.8.06-17.69,0-2.65,2.4-5.14,5.13-5.16,0,0,17.4-.1,17.4-.1Z"/>
            <path class="cls-7" d="M64.46,101.19l-.02,17.69,1.07-.96,2.72-2.63,2.78-2.68,2.89-2.78,2.52-2.42,3.05-2.94,3.25-3.15,2.92-2.85c.74-.72,1.32-1.53,1.7-2.48l-.34-.06c1.1,0,2.11-.68,3.08-1.26-.41,2.68-1.83,4.97-3.73,6.81l-2.78,2.68-3,2.88-2.68,2.58-2.68,2.57-2.78,2.68-2.84,2.73-2.78,2.68-1.87,1.8c-.28.27-.54.5-.95.69.3-.84.44-1.59.41-2.44l-.05-1.8v-17.18c0-.09.07-.13.12-.16h-.01Z"/>
          </g>
        </g>
        <g>
          <polygon class="cls-5" points="44.07 0 43.34 .11 43.34 0 44.07 0"/>
          <path class="cls-1" d="M51.82,41.61c2.06-1.81,3.42-4.11,4-6.77l3.03-13.95c.5-2.3-.08-4.68-1.05-6.8-2.24-4.87-7.24-7.95-12.51-7.96s-10.27,3-12.62,7.88c-.8,1.66-1.2,3.45-1.2,5.32v14.9c0,1.1-.99,1.87-1.97,1.95s-2.02-.56-2.19-1.64-.1-2.07-.09-3.15l.03-12.28c0-4.16,1.69-8.06,4.47-11.14,4.01-4.44,9.88-6.65,15.91-5.87,5.5.72,10.65,4.04,13.44,9.09,1.68,3.05,2.64,6.72,2.01,10.24l-2.93,13.61c-.68,3.16-2.02,6.04-4.21,8.4-1.69,1.81-3.58,3.22-5.82,4.27-4.87,2.29-10.55,2.17-15.25-.49-.95-.54-1.06-1.9-.6-2.72.5-.88,1.72-1.41,2.69-.9,1.71.9,3.47,1.47,5.47,1.53,3.5.09,6.76-1.18,9.42-3.53h-.03Z"/>
        </g>
      </g>
    </g>
  </g>
</svg>